<svg width="503" height="48" viewBox="0 0 503 48" fill="none" xmlns="http://www.w3.org/2000/svg">
<path fill-rule="evenodd" clip-rule="evenodd" d="M0 24C0 10.7452 10.7452 0 24 0H115.102C125.858 0 134.961 7.07544 138.011 16.8258C138.505 18.4038 139.898 19.5938 141.551 19.5938C143.205 19.5938 144.597 18.4038 145.091 16.8258C148.141 7.07544 157.245 0 168 0H478.531C491.786 0 502.531 10.7452 502.531 24C502.531 37.2548 491.786 48 478.531 48H168.001C157.246 48 148.144 40.9267 145.092 31.1786C144.598 29.6002 143.205 28.4101 141.551 28.4101C139.897 28.4101 138.504 29.6002 138.01 31.1786C134.958 40.9267 125.856 48 115.102 48H24C10.7452 48 0 37.2548 0 24ZM285.97 34.8817C284.288 34.8817 282.973 34.6453 282.027 34.1664C281.078 33.6905 280.416 32.9782 280.038 32.0235C279.659 31.0718 279.47 29.8954 279.47 28.4884V20.5286C279.47 18.2438 279.979 16.559 280.998 15.4772C282.015 14.3954 283.673 13.8516 285.973 13.8516H296.664C298.298 13.8516 299.546 13.9402 300.412 14.1205C301.275 14.2979 301.709 14.4841 301.709 14.6733L301 17.6349C300.598 17.564 299.407 17.4871 297.429 17.4014C295.452 17.3187 292.582 17.2773 288.816 17.2773H287.004C285.11 17.2773 284.164 18.1226 284.164 19.8133V28.917C284.164 29.7269 284.371 30.3505 284.785 30.791C285.198 31.2314 285.94 31.4501 287.004 31.4501H288.462C292.393 31.4501 295.443 31.4087 297.61 31.3259C299.776 31.2432 301.121 31.1545 301.641 31.057L303.098 33.4127C303.098 33.5309 302.903 33.7112 302.513 33.9477C302.123 34.1871 301.405 34.3999 300.364 34.5891C299.321 34.7783 297.819 34.8758 295.854 34.8758H285.979L285.97 34.8817ZM206.757 34.8797V16.7462L206.402 13.8555H222.138C223.655 13.8555 224.843 14.0594 225.709 14.4614C226.572 14.8663 227.213 15.3954 227.627 16.0486C228.041 16.7048 228.307 17.3994 228.425 18.1383C228.543 18.8773 228.602 19.5778 228.602 20.2458V22.3532C228.602 22.9001 228.52 23.5149 228.354 24.1917C228.189 24.8686 227.881 25.5248 227.432 26.1543C226.983 26.7839 226.33 27.31 225.478 27.7238C224.627 28.1406 223.513 28.3475 222.138 28.3475H218.515C217.022 28.3475 215.63 28.312 214.341 28.2411C213.049 28.1702 212.086 28.111 211.447 28.0638V34.8827H206.76L206.757 34.8797ZM211.444 24.9188H221.107C222.174 24.9188 222.907 24.6558 223.309 24.1326C223.711 23.6094 223.912 22.9799 223.912 22.2409V19.9916C223.912 19.229 223.711 18.5876 223.309 18.0645C222.907 17.5413 222.183 17.2782 221.142 17.2782H211.444V24.9188ZM172.866 34.8823C171.255 34.8823 170.073 34.8114 169.313 34.6695C168.557 34.5277 168.175 34.3592 168.175 34.17L169.597 31.0635C170.141 31.1581 171.498 31.2468 173.664 31.3325C175.831 31.4153 178.81 31.4566 182.599 31.4566H183.273C184.29 31.4566 185.014 31.2734 185.44 30.9039C185.865 30.5344 186.078 29.9108 186.078 29.03V28.3147C186.078 27.4812 185.907 26.887 185.564 26.5294C185.221 26.1718 184.456 25.9944 183.273 25.9944H175.033C172.641 25.9944 170.9 25.5481 169.81 24.6555C168.719 23.7628 168.175 22.3056 168.175 20.281V19.7105C168.175 18.6642 168.37 17.7006 168.761 16.8198C169.151 15.939 169.819 15.2325 170.767 14.6946C171.713 14.1596 173.017 13.8906 174.675 13.8906H184.337C185.948 13.8906 187.249 13.9734 188.245 14.1419C189.241 14.3074 189.737 14.4877 189.737 14.6769L189.028 17.6769C188.413 17.606 187.015 17.5292 184.837 17.4434C182.658 17.3607 179.732 17.3193 176.061 17.3193L175.671 17.2838C174.58 17.2838 173.847 17.5055 173.469 17.943C173.091 18.3834 172.887 18.9361 172.866 19.6041V20.21C172.866 20.9962 173.085 21.5844 173.522 21.9776C173.96 22.3707 174.69 22.5657 175.707 22.5657H183.592C185.109 22.5657 186.4 22.7194 187.465 23.0298C188.532 23.3402 189.347 23.9047 189.915 24.7264C190.482 25.5481 190.766 26.757 190.766 28.3501V28.9206C190.766 30.7059 190.311 32.1453 189.398 33.239C188.484 34.3326 186.906 34.8823 184.657 34.8823H172.866ZM249.665 13.8906L239.258 34.8823H244.443L246.751 30.3482H259.47L261.565 34.8823H267.036L256.665 13.8906H249.665ZM258.157 26.8516H248.037L252.938 17.1065H253.292L258.157 26.8516ZM317.302 13.8906V34.8823H336.698C338.261 34.8823 339.364 34.841 340.002 34.7582C340.641 34.6725 340.96 34.5838 340.96 34.4892L339.538 31.4537H321.99V25.7786H335.276V22.2436H321.99V17.3163H339.396V13.8906H317.302ZM362.309 34.8797L362.273 17.2812H353.037V13.8555H376.269V17.2812H366.997V34.8797H362.309ZM390.478 13.8906V34.8823H395.166V13.8906H390.478ZM411.862 34.8833V16.7498L411.507 13.8945H416.907L424.935 28.1737L433.247 13.8945H438.041V34.8863H433.353V21.5706H432.963L431.577 24.6771L427.102 32.7463H422.804L418.329 24.6771L416.907 21.5706H416.553V34.8863H411.865L411.862 34.8833ZM454.382 13.8906V34.8823H473.778C475.342 34.8823 476.444 34.841 477.082 34.7582C477.721 34.6725 478.04 34.5838 478.04 34.4892L476.618 31.4537H459.07V25.7786H472.356V22.2436H459.07V17.3163H476.477V13.8906H454.382ZM31.3283 18.3594V23.4355V23.4382L24.5601 26.1711L31.3283 28.9176V33.9991L18.1244 28.784H18.0972V23.5772H18.1244L31.3283 18.3594ZM108.252 33.7292V28.6558L115.015 25.9257L108.252 23.1955V18.1194L121.437 23.3318H121.469V28.5441H121.437L108.252 33.7292ZM102.59 10.9453L94.8354 37.383H99.4402L107.195 10.9453H102.59ZM52.6498 23.014C52.7316 20.946 52.0422 18.9297 50.7317 17.4012H50.7344C50.0859 16.6791 49.2985 16.1124 48.4266 15.7391C47.5547 15.3658 46.6201 15.1969 45.6801 15.2378C44.6719 15.1915 43.6665 15.3658 42.7238 15.7473C41.781 16.1287 40.92 16.7118 40.198 17.4584V15.7882H35.5933V34.2752H40.198V26.0875C40.198 21.8397 41.6394 19.7172 44.5221 19.7172C45.0043 19.6954 45.4866 19.7907 45.9307 19.9951C46.3721 20.1994 46.7672 20.5101 47.0833 20.8997C47.7563 21.7907 48.0996 22.9105 48.0451 24.0494V34.2752H52.6498V23.014ZM58.5093 8.09766V34.5353H63.114V8.09766H58.5093ZM85.2907 33.5666H89.1298L95.5901 15.0469H90.6693L87.0427 26.1582L83.3072 15.0469H79.716L75.9805 26.1227L72.3539 15.0469H67.4331L73.8879 33.5666H77.7243L81.5252 22.676L85.2907 33.5666Z" fill="url(#paint0_linear_306_108)"/>
<defs>
<linearGradient id="paint0_linear_306_108" x1="8.32654" y1="-15.9662" x2="565.529" y2="-15.9662" gradientUnits="userSpaceOnUse">
<stop offset="0.251308" stop-color="#996DFF"/>
<stop offset="0.623787" stop-color="#FF876E"/>
<stop offset="1" stop-color="#FFD072"/>
</linearGradient>
</defs>
</svg>
